<svg viewBox="0 0 400 300" xmlns="http://www.w3.org/2000/svg">
  <!-- Hexagonal frame with gradient -->
  <defs>
    <linearGradient id="goldGradient" x1="0%" y1="0%" x2="100%" y2="100%">
      <stop offset="0%" style="stop-color:#FFD700;stop-opacity:1" />
      <stop offset="50%" style="stop-color:#FFA500;stop-opacity:1" />
      <stop offset="100%" style="stop-color:#B8860B;stop-opacity:1" />
    </linearGradient>
    <linearGradient id="africaGradient" x1="0%" y1="0%" x2="100%" y2="100%">
      <stop offset="0%" style="stop-color:#FFD700;stop-opacity:1" />
      <stop offset="100%" style="stop-color:#DAA520;stop-opacity:1" />
    </linearGradient>
    <filter id="glow">
      <feGaussianBlur stdDeviation="3" result="coloredBlur"/>
      <feMerge> 
        <feMergeNode in="coloredBlur"/>
        <feMergeNode in="SourceGraphic"/>
      </feMerge>
    </filter>
  </defs>
  
  <!-- Hexagonal frame -->
  <path d="M200 50 L320 110 L320 190 L200 250 L80 190 L80 110 Z" 
        fill="none" 
        stroke="url(#goldGradient)" 
        stroke-width="3"
        filter="url(#glow)"/>
  
  <!-- Africa continent silhouette -->
  <path d="M180 100 
           C190 95, 210 95, 220 100
           C225 105, 225 115, 230 125
           C235 135, 240 145, 235 155
           C230 165, 225 175, 220 185
           C215 195, 210 205, 205 215
           C200 225, 195 235, 185 240
           C175 245, 165 240, 160 230
           C155 220, 150 210, 155 200
           C160 190, 165 180, 170 170
           C175 160, 180 150, 175 140
           C170 130, 175 120, 180 110
           C185 105, 180 100, 180 100 Z" 
        fill="url(#africaGradient)"
        filter="url(#glow)"/>
  
  <!-- Investment arrows pointing to Africa -->
  <!-- Top arrow -->
  <path d="M200 75 L195 85 L205 85 Z" fill="url(#goldGradient)" filter="url(#glow)"/>
  <line x1="200" y1="60" x2="200" y2="75" stroke="url(#goldGradient)" stroke-width="2"/>
  
  <!-- Top-right arrow -->
  <path d="M285 95 L280 100 L285 105 L290 100 Z" fill="url(#goldGradient)" filter="url(#glow)"/>
  <line x1="300" y1="80" x2="285" y2="95" stroke="url(#goldGradient)" stroke-width="2"/>
  
  <!-- Bottom-right arrow -->
  <path d="M285 205 L280 200 L285 195 L290 200 Z" fill="url(#goldGradient)" filter="url(#glow)"/>
  <line x1="300" y1="220" x2="285" y2="205" stroke="url(#goldGradient)" stroke-width="2"/>
  
  <!-- Bottom arrow -->
  <path d="M200 225 L195 215 L205 215 Z" fill="url(#goldGradient)" filter="url(#glow)"/>
  <line x1="200" y1="240" x2="200" y2="225" stroke="url(#goldGradient)" stroke-width="2"/>
  
  <!-- Bottom-left arrow -->
  <path d="M115 205 L120 200 L115 195 L110 200 Z" fill="url(#goldGradient)" filter="url(#glow)"/>
  <line x1="100" y1="220" x2="115" y2="205" stroke="url(#goldGradient)" stroke-width="2"/>
  
  <!-- Top-left arrow -->
  <path d="M115 95 L120 100 L115 105 L110 100 Z" fill="url(#goldGradient)" filter="url(#glow)"/>
  <line x1="100" y1="80" x2="115" y2="95" stroke="url(#goldGradient)" stroke-width="2"/>
</svg>